<svg width="150" height="171" viewBox="0 0 150 171" fill="none" xmlns="http://www.w3.org/2000/svg">
<path d="M0 10.6875V160.312H150V10.6875H0ZM81.6295 127.382C81.6295 141.943 73.058 148.59 60.5692 148.59C49.2857 148.59 42.7567 142.778 39.4085 135.731L50.8929 128.818C53.1027 132.725 55.1116 136.032 59.9665 136.032C64.5871 136.032 67.5335 134.228 67.5335 127.181V79.3881H81.6295V127.382ZM114.978 148.59C101.886 148.59 93.4152 142.378 89.2969 134.228L100.781 127.615C103.795 132.525 107.746 136.165 114.676 136.165C120.502 136.165 124.252 133.26 124.252 129.219C124.252 124.409 120.435 122.706 113.973 119.867L110.458 118.364C100.279 114.056 93.5491 108.612 93.5491 97.1561C93.5491 86.6021 101.618 78.5865 114.174 78.5865C123.147 78.5865 129.576 81.6926 134.196 89.8418L123.214 96.8555C120.804 92.5471 118.192 90.8438 114.141 90.8438C110.022 90.8438 107.411 93.4488 107.411 96.8555C107.411 101.064 110.022 102.767 116.083 105.405L119.598 106.908C131.585 112.018 138.315 117.262 138.315 129.018C138.315 141.643 128.337 148.59 114.978 148.59Z" fill="#C1C1C1"/>
</svg>
