<svg width="426" height="169" viewBox="0 0 426 169" fill="none" xmlns="http://www.w3.org/2000/svg">
<path d="M81.405 112.055C81.405 111.905 81.44 111.775 81.51 111.665C81.59 111.555 81.695 111.5 81.825 111.5H82.335V109.655C82.335 109.525 82.385 109.425 82.485 109.355C82.595 109.285 82.725 109.25 82.875 109.25C83.255 109.25 83.445 109.385 83.445 109.655V111.5H85.845C85.975 111.5 86.075 111.555 86.145 111.665C86.215 111.765 86.25 111.89 86.25 112.04C86.25 112.42 86.115 112.61 85.845 112.61H83.445V116.195C83.445 117.315 83.87 117.875 84.72 117.875C85.08 117.875 85.39 117.775 85.65 117.575C85.92 117.375 86.055 117.025 86.055 116.525C86.055 116.385 86.11 116.27 86.22 116.18C86.34 116.09 86.48 116.045 86.64 116.045C86.79 116.045 86.915 116.09 87.015 116.18C87.115 116.26 87.165 116.38 87.165 116.54C87.155 117.33 86.915 117.935 86.445 118.355C85.985 118.775 85.41 118.985 84.72 118.985C83.13 118.985 82.335 117.92 82.335 115.79V112.61H81.825C81.545 112.61 81.405 112.425 81.405 112.055ZM88.316 118.61V108.14C88.316 108.01 88.366 107.91 88.466 107.84C88.576 107.77 88.706 107.735 88.856 107.735C89.236 107.735 89.426 107.87 89.426 108.14V113.12C89.916 112.6 90.516 112.19 91.226 111.89C91.936 111.59 92.661 111.44 93.401 111.44C94.351 111.44 95.141 111.72 95.771 112.28C96.401 112.83 96.716 113.57 96.716 114.5C96.716 114.59 96.711 115.05 96.701 115.88C96.701 116.7 96.701 117.6 96.701 118.58C96.701 118.71 96.646 118.815 96.536 118.895C96.426 118.965 96.296 119 96.146 119C95.776 119 95.591 118.86 95.591 118.58V114.635C95.591 114.145 95.451 113.735 95.171 113.405C94.901 113.065 94.601 112.835 94.271 112.715C93.941 112.595 93.606 112.535 93.266 112.535C92.526 112.535 91.771 112.765 91.001 113.225C90.241 113.685 89.716 114.275 89.426 114.995V118.61C89.426 118.88 89.236 119.015 88.856 119.015C88.706 119.015 88.576 118.98 88.466 118.91C88.366 118.84 88.316 118.74 88.316 118.61ZM98.0788 115.04C98.0788 114.4 98.2188 113.83 98.4988 113.33C98.7788 112.83 99.1488 112.435 99.6088 112.145C100.069 111.855 100.564 111.64 101.094 111.5C101.624 111.35 102.164 111.275 102.714 111.275C103.694 111.275 104.454 111.49 104.994 111.92C105.534 112.34 105.804 112.86 105.804 113.48C105.804 114.15 105.489 114.72 104.859 115.19C104.229 115.66 103.334 115.895 102.174 115.895C101.134 115.895 100.144 115.745 99.2038 115.445C99.3138 116.185 99.6588 116.805 100.239 117.305C100.819 117.805 101.534 118.055 102.384 118.055C102.834 118.055 103.299 117.985 103.779 117.845C104.269 117.705 104.654 117.505 104.934 117.245C104.974 117.165 105.054 117.125 105.174 117.125C105.314 117.125 105.464 117.19 105.624 117.32C105.784 117.44 105.864 117.565 105.864 117.695C105.614 118.205 105.124 118.58 104.394 118.82C103.674 119.05 102.974 119.165 102.294 119.165C101.064 119.165 100.054 118.76 99.2638 117.95C98.4738 117.14 98.0788 116.17 98.0788 115.04ZM99.2638 114.29C100.014 114.62 100.944 114.785 102.054 114.785C102.924 114.785 103.584 114.65 104.034 114.38C104.484 114.1 104.709 113.79 104.709 113.45C104.709 113.15 104.519 112.9 104.139 112.7C103.769 112.49 103.214 112.385 102.474 112.385C101.674 112.385 101.004 112.565 100.464 112.925C99.9338 113.275 99.5338 113.73 99.2638 114.29ZM107.029 117.575C107.029 117.445 107.084 117.305 107.194 117.155C107.314 117.005 107.449 116.91 107.599 116.87C107.669 116.87 107.704 116.88 107.704 116.9C108.024 117.25 108.484 117.525 109.084 117.725C109.684 117.915 110.154 118.025 110.494 118.055C110.844 118.085 111.169 118.1 111.469 118.1C112.769 118.1 113.419 117.705 113.419 116.915C113.419 116.645 113.319 116.43 113.119 116.27C112.929 116.1 112.664 115.985 112.324 115.925C111.994 115.865 111.659 115.825 111.319 115.805C110.979 115.785 110.609 115.77 110.209 115.76C109.809 115.74 109.504 115.71 109.294 115.67C108.724 115.56 108.219 115.33 107.779 114.98C107.339 114.62 107.119 114.2 107.119 113.72C107.119 112.96 107.499 112.38 108.259 111.98C109.029 111.57 109.874 111.365 110.794 111.365C111.414 111.365 112.079 111.475 112.789 111.695C113.499 111.905 114.029 112.235 114.379 112.685C114.389 112.705 114.394 112.73 114.394 112.76C114.394 112.89 114.334 113.045 114.214 113.225C114.094 113.395 113.979 113.48 113.869 113.48C113.769 113.48 113.669 113.4 113.569 113.24C113.089 112.73 112.134 112.475 110.704 112.475C110.114 112.475 109.554 112.575 109.024 112.775C108.494 112.975 108.229 113.27 108.229 113.66C108.229 113.99 108.459 114.24 108.919 114.41C109.379 114.57 109.869 114.65 110.389 114.65C110.759 114.65 111.069 114.655 111.319 114.665C111.569 114.675 111.874 114.705 112.234 114.755C112.594 114.795 112.894 114.87 113.134 114.98C113.374 115.08 113.609 115.215 113.839 115.385C114.069 115.545 114.239 115.765 114.349 116.045C114.469 116.315 114.529 116.635 114.529 117.005C114.529 117.515 114.369 117.945 114.049 118.295C113.739 118.635 113.379 118.87 112.969 119C112.569 119.14 112.144 119.21 111.694 119.21C109.584 119.21 108.064 118.76 107.134 117.86C107.064 117.79 107.029 117.695 107.029 117.575ZM115.701 115.04C115.701 114.4 115.841 113.83 116.121 113.33C116.401 112.83 116.771 112.435 117.231 112.145C117.691 111.855 118.186 111.64 118.716 111.5C119.246 111.35 119.786 111.275 120.336 111.275C121.316 111.275 122.076 111.49 122.616 111.92C123.156 112.34 123.426 112.86 123.426 113.48C123.426 114.15 123.111 114.72 122.481 115.19C121.851 115.66 120.956 115.895 119.796 115.895C118.756 115.895 117.766 115.745 116.826 115.445C116.936 116.185 117.281 116.805 117.861 117.305C118.441 117.805 119.156 118.055 120.006 118.055C120.456 118.055 120.921 117.985 121.401 117.845C121.891 117.705 122.276 117.505 122.556 117.245C122.596 117.165 122.676 117.125 122.796 117.125C122.936 117.125 123.086 117.19 123.246 117.32C123.406 117.44 123.486 117.565 123.486 117.695C123.236 118.205 122.746 118.58 122.016 118.82C121.296 119.05 120.596 119.165 119.916 119.165C118.686 119.165 117.676 118.76 116.886 117.95C116.096 117.14 115.701 116.17 115.701 115.04ZM116.886 114.29C117.636 114.62 118.566 114.785 119.676 114.785C120.546 114.785 121.206 114.65 121.656 114.38C122.106 114.1 122.331 113.79 122.331 113.45C122.331 113.15 122.141 112.9 121.761 112.7C121.391 112.49 120.836 112.385 120.096 112.385C119.296 112.385 118.626 112.565 118.086 112.925C117.556 113.275 117.156 113.73 116.886 114.29ZM128.255 116.27C128.255 114.93 128.78 113.775 129.83 112.805C130.88 111.835 132.07 111.35 133.4 111.35C134.31 111.35 135.085 111.695 135.725 112.385C136.365 113.075 136.685 113.86 136.685 114.74L136.67 118.67C136.67 118.8 136.605 118.905 136.475 118.985C136.355 119.055 136.22 119.09 136.07 119.09C135.74 119.09 135.575 118.95 135.575 118.67V116.135C134.765 117.185 133.99 117.945 133.25 118.415C132.52 118.885 131.765 119.12 130.985 119.12C130.265 119.12 129.63 118.83 129.08 118.25C128.53 117.66 128.255 117 128.255 116.27ZM129.335 116.3C129.335 116.87 129.535 117.305 129.935 117.605C130.335 117.895 130.76 118.04 131.21 118.04C131.73 118.04 132.325 117.785 132.995 117.275C133.665 116.755 134.22 116.18 134.66 115.55C135.11 114.91 135.335 114.41 135.335 114.05C135.335 113.75 135.245 113.485 135.065 113.255C134.895 113.015 134.68 112.84 134.42 112.73C134.17 112.62 133.94 112.54 133.73 112.49C133.52 112.43 133.345 112.4 133.205 112.4C132.225 112.4 131.335 112.795 130.535 113.585C129.735 114.365 129.335 115.27 129.335 116.3ZM138.355 118.58V111.935C138.355 111.665 138.545 111.53 138.925 111.53C139.075 111.53 139.2 111.565 139.3 111.635C139.41 111.705 139.465 111.805 139.465 111.935V113.81C139.845 112.99 140.265 112.37 140.725 111.95C141.195 111.53 141.815 111.32 142.585 111.32C143.125 111.32 143.67 111.39 144.22 111.53C144.51 111.67 144.655 111.86 144.655 112.1C144.655 112.27 144.62 112.39 144.55 112.46C144.48 112.53 144.365 112.575 144.205 112.595C143.695 112.475 143.28 112.415 142.96 112.415C142.22 112.415 141.545 112.78 140.935 113.51C140.325 114.24 139.835 115.19 139.465 116.36V118.58C139.465 118.71 139.41 118.815 139.3 118.895C139.19 118.965 139.06 119 138.91 119C138.54 119 138.355 118.86 138.355 118.58ZM145.188 115.04C145.188 114.4 145.328 113.83 145.608 113.33C145.888 112.83 146.258 112.435 146.718 112.145C147.178 111.855 147.673 111.64 148.203 111.5C148.733 111.35 149.273 111.275 149.823 111.275C150.803 111.275 151.563 111.49 152.103 111.92C152.643 112.34 152.913 112.86 152.913 113.48C152.913 114.15 152.598 114.72 151.968 115.19C151.338 115.66 150.443 115.895 149.283 115.895C148.243 115.895 147.253 115.745 146.313 115.445C146.423 116.185 146.768 116.805 147.348 117.305C147.928 117.805 148.643 118.055 149.493 118.055C149.943 118.055 150.408 117.985 150.888 117.845C151.378 117.705 151.763 117.505 152.043 117.245C152.083 117.165 152.163 117.125 152.283 117.125C152.423 117.125 152.573 117.19 152.733 117.32C152.893 117.44 152.973 117.565 152.973 117.695C152.723 118.205 152.233 118.58 151.503 118.82C150.783 119.05 150.083 119.165 149.403 119.165C148.173 119.165 147.163 118.76 146.373 117.95C145.583 117.14 145.188 116.17 145.188 115.04ZM146.373 114.29C147.123 114.62 148.053 114.785 149.163 114.785C150.033 114.785 150.693 114.65 151.143 114.38C151.593 114.1 151.818 113.79 151.818 113.45C151.818 113.15 151.628 112.9 151.248 112.7C150.878 112.49 150.323 112.385 149.583 112.385C148.783 112.385 148.113 112.565 147.573 112.925C147.043 113.275 146.643 113.73 146.373 114.29ZM157.577 112.055C157.577 111.905 157.612 111.775 157.682 111.665C157.762 111.555 157.867 111.5 157.997 111.5H158.507V109.655C158.507 109.525 158.557 109.425 158.657 109.355C158.767 109.285 158.897 109.25 159.047 109.25C159.427 109.25 159.617 109.385 159.617 109.655V111.5H162.017C162.147 111.5 162.247 111.555 162.317 111.665C162.387 111.765 162.422 111.89 162.422 112.04C162.422 112.42 162.287 112.61 162.017 112.61H159.617V116.195C159.617 117.315 160.042 117.875 160.892 117.875C161.252 117.875 161.562 117.775 161.822 117.575C162.092 117.375 162.227 117.025 162.227 116.525C162.227 116.385 162.282 116.27 162.392 116.18C162.512 116.09 162.652 116.045 162.812 116.045C162.962 116.045 163.087 116.09 163.187 116.18C163.287 116.26 163.337 116.38 163.337 116.54C163.327 117.33 163.087 117.935 162.617 118.355C162.157 118.775 161.582 118.985 160.892 118.985C159.302 118.985 158.507 117.92 158.507 115.79V112.61H157.997C157.717 112.61 157.577 112.425 157.577 112.055ZM164.488 118.61V108.14C164.488 108.01 164.538 107.91 164.638 107.84C164.748 107.77 164.878 107.735 165.028 107.735C165.408 107.735 165.598 107.87 165.598 108.14V113.12C166.088 112.6 166.688 112.19 167.398 111.89C168.108 111.59 168.833 111.44 169.573 111.44C170.523 111.44 171.313 111.72 171.943 112.28C172.573 112.83 172.888 113.57 172.888 114.5C172.888 114.59 172.883 115.05 172.873 115.88C172.873 116.7 172.873 117.6 172.873 118.58C172.873 118.71 172.818 118.815 172.708 118.895C172.598 118.965 172.468 119 172.318 119C171.948 119 171.763 118.86 171.763 118.58V114.635C171.763 114.145 171.623 113.735 171.343 113.405C171.073 113.065 170.773 112.835 170.443 112.715C170.113 112.595 169.778 112.535 169.438 112.535C168.698 112.535 167.943 112.765 167.173 113.225C166.413 113.685 165.888 114.275 165.598 114.995V118.61C165.598 118.88 165.408 119.015 165.028 119.015C164.878 119.015 164.748 118.98 164.638 118.91C164.538 118.84 164.488 118.74 164.488 118.61ZM174.251 115.04C174.251 114.4 174.391 113.83 174.671 113.33C174.951 112.83 175.321 112.435 175.781 112.145C176.241 111.855 176.736 111.64 177.266 111.5C177.796 111.35 178.336 111.275 178.886 111.275C179.866 111.275 180.626 111.49 181.166 111.92C181.706 112.34 181.976 112.86 181.976 113.48C181.976 114.15 181.661 114.72 181.031 115.19C180.401 115.66 179.506 115.895 178.346 115.895C177.306 115.895 176.316 115.745 175.376 115.445C175.486 116.185 175.831 116.805 176.411 117.305C176.991 117.805 177.706 118.055 178.556 118.055C179.006 118.055 179.471 117.985 179.951 117.845C180.441 117.705 180.826 117.505 181.106 117.245C181.146 117.165 181.226 117.125 181.346 117.125C181.486 117.125 181.636 117.19 181.796 117.32C181.956 117.44 182.036 117.565 182.036 117.695C181.786 118.205 181.296 118.58 180.566 118.82C179.846 119.05 179.146 119.165 178.466 119.165C177.236 119.165 176.226 118.76 175.436 117.95C174.646 117.14 174.251 116.17 174.251 115.04ZM175.436 114.29C176.186 114.62 177.116 114.785 178.226 114.785C179.096 114.785 179.756 114.65 180.206 114.38C180.656 114.1 180.881 113.79 180.881 113.45C180.881 113.15 180.691 112.9 180.311 112.7C179.941 112.49 179.386 112.385 178.646 112.385C177.846 112.385 177.176 112.565 176.636 112.925C176.106 113.275 175.706 113.73 175.436 114.29ZM186.639 112.055C186.639 111.905 186.674 111.775 186.744 111.665C186.824 111.555 186.929 111.5 187.059 111.5H187.569V109.655C187.569 109.525 187.619 109.425 187.719 109.355C187.829 109.285 187.959 109.25 188.109 109.25C188.489 109.25 188.679 109.385 188.679 109.655V111.5H191.079C191.209 111.5 191.309 111.555 191.379 111.665C191.449 111.765 191.484 111.89 191.484 112.04C191.484 112.42 191.349 112.61 191.079 112.61H188.679V116.195C188.679 117.315 189.104 117.875 189.954 117.875C190.314 117.875 190.624 117.775 190.884 117.575C191.154 117.375 191.289 117.025 191.289 116.525C191.289 116.385 191.344 116.27 191.454 116.18C191.574 116.09 191.714 116.045 191.874 116.045C192.024 116.045 192.149 116.09 192.249 116.18C192.349 116.26 192.399 116.38 192.399 116.54C192.389 117.33 192.149 117.935 191.679 118.355C191.219 118.775 190.644 118.985 189.954 118.985C188.364 118.985 187.569 117.92 187.569 115.79V112.61H187.059C186.779 112.61 186.639 112.425 186.639 112.055ZM193.22 115.04C193.22 114.4 193.36 113.83 193.64 113.33C193.92 112.83 194.29 112.435 194.75 112.145C195.21 111.855 195.705 111.64 196.235 111.5C196.765 111.35 197.305 111.275 197.855 111.275C198.835 111.275 199.595 111.49 200.135 111.92C200.675 112.34 200.945 112.86 200.945 113.48C200.945 114.15 200.63 114.72 200 115.19C199.37 115.66 198.475 115.895 197.315 115.895C196.275 115.895 195.285 115.745 194.345 115.445C194.455 116.185 194.8 116.805 195.38 117.305C195.96 117.805 196.675 118.055 197.525 118.055C197.975 118.055 198.44 117.985 198.92 117.845C199.41 117.705 199.795 117.505 200.075 117.245C200.115 117.165 200.195 117.125 200.315 117.125C200.455 117.125 200.605 117.19 200.765 117.32C200.925 117.44 201.005 117.565 201.005 117.695C200.755 118.205 200.265 118.58 199.535 118.82C198.815 119.05 198.115 119.165 197.435 119.165C196.205 119.165 195.195 118.76 194.405 117.95C193.615 117.14 193.22 116.17 193.22 115.04ZM194.405 114.29C195.155 114.62 196.085 114.785 197.195 114.785C198.065 114.785 198.725 114.65 199.175 114.38C199.625 114.1 199.85 113.79 199.85 113.45C199.85 113.15 199.66 112.9 199.28 112.7C198.91 112.49 198.355 112.385 197.615 112.385C196.815 112.385 196.145 112.565 195.605 112.925C195.075 113.275 194.675 113.73 194.405 114.29ZM202.156 115.28C202.156 114.42 202.386 113.68 202.846 113.06C203.306 112.43 203.861 111.975 204.511 111.695C205.161 111.415 205.841 111.275 206.551 111.275C207.451 111.275 208.286 111.585 209.056 112.205C209.136 112.275 209.176 112.365 209.176 112.475C209.176 112.635 209.111 112.785 208.981 112.925C208.851 113.055 208.716 113.12 208.576 113.12C208.476 113.12 208.391 113.085 208.321 113.015C207.841 112.595 207.241 112.385 206.521 112.385C205.501 112.385 204.701 112.695 204.121 113.315C203.551 113.935 203.266 114.595 203.266 115.295C203.266 116.005 203.596 116.655 204.256 117.245C204.916 117.825 205.676 118.115 206.536 118.115C207.416 118.115 208.131 117.8 208.681 117.17C208.791 117.06 208.886 117.005 208.966 117.005C209.116 117.005 209.261 117.08 209.401 117.23C209.541 117.38 209.611 117.525 209.611 117.665C209.611 117.755 209.576 117.835 209.506 117.905C208.736 118.785 207.771 119.225 206.611 119.225C205.381 119.225 204.331 118.84 203.461 118.07C202.591 117.29 202.156 116.36 202.156 115.28ZM210.806 118.61V108.14C210.806 108.01 210.856 107.91 210.956 107.84C211.066 107.77 211.196 107.735 211.346 107.735C211.726 107.735 211.916 107.87 211.916 108.14V113.12C212.406 112.6 213.006 112.19 213.716 111.89C214.426 111.59 215.151 111.44 215.891 111.44C216.841 111.44 217.631 111.72 218.261 112.28C218.891 112.83 219.206 113.57 219.206 114.5C219.206 114.59 219.201 115.05 219.191 115.88C219.191 116.7 219.191 117.6 219.191 118.58C219.191 118.71 219.136 118.815 219.026 118.895C218.916 118.965 218.786 119 218.636 119C218.266 119 218.081 118.86 218.081 118.58V114.635C218.081 114.145 217.941 113.735 217.661 113.405C217.391 113.065 217.091 112.835 216.761 112.715C216.431 112.595 216.096 112.535 215.756 112.535C215.016 112.535 214.261 112.765 213.491 113.225C212.731 113.685 212.206 114.275 211.916 114.995V118.61C211.916 118.88 211.726 119.015 211.346 119.015C211.196 119.015 211.066 118.98 210.956 118.91C210.856 118.84 210.806 118.74 210.806 118.61ZM220.899 118.61V111.905C220.899 111.775 220.949 111.675 221.049 111.605C221.159 111.535 221.289 111.5 221.439 111.5C221.819 111.5 222.009 111.635 222.009 111.905V113.09C222.509 112.55 223.114 112.125 223.824 111.815C224.534 111.495 225.254 111.335 225.984 111.335C226.924 111.335 227.709 111.63 228.339 112.22C228.979 112.8 229.299 113.56 229.299 114.5C229.299 114.59 229.294 115.05 229.284 115.88C229.284 116.7 229.284 117.6 229.284 118.58C229.284 118.71 229.229 118.815 229.119 118.895C229.009 118.965 228.879 119 228.729 119C228.359 119 228.174 118.86 228.174 118.58V114.635C228.174 113.925 227.919 113.38 227.409 113C226.909 112.62 226.389 112.43 225.849 112.43C225.119 112.43 224.369 112.675 223.599 113.165C222.839 113.645 222.309 114.255 222.009 114.995V118.61C222.009 118.88 221.819 119.015 221.439 119.015C221.289 119.015 221.159 118.98 221.049 118.91C220.949 118.84 220.899 118.74 220.899 118.61ZM230.662 115.28C230.662 114.42 230.887 113.68 231.337 113.06C231.797 112.43 232.347 111.975 232.987 111.695C233.637 111.415 234.317 111.275 235.027 111.275C236.027 111.275 236.947 111.655 237.787 112.415C238.637 113.165 239.062 114.115 239.062 115.265C239.062 116.355 238.687 117.29 237.937 118.07C237.187 118.84 236.207 119.225 234.997 119.225C233.807 119.225 232.787 118.84 231.937 118.07C231.087 117.29 230.662 116.36 230.662 115.28ZM231.772 115.295C231.772 116.005 232.097 116.655 232.747 117.245C233.397 117.825 234.152 118.115 235.012 118.115C235.822 118.115 236.512 117.82 237.082 117.23C237.662 116.64 237.952 115.985 237.952 115.265C237.952 114.565 237.677 113.91 237.127 113.3C236.577 112.69 235.867 112.385 234.997 112.385C233.977 112.385 233.182 112.695 232.612 113.315C232.052 113.935 231.772 114.595 231.772 115.295ZM240.528 118.58V108.155C240.528 107.885 240.718 107.75 241.098 107.75C241.248 107.75 241.373 107.785 241.473 107.855C241.583 107.925 241.638 108.025 241.638 108.155V118.58C241.638 118.71 241.583 118.815 241.473 118.895C241.363 118.965 241.233 119 241.083 119C240.713 119 240.528 118.86 240.528 118.58ZM243.113 115.28C243.113 114.42 243.338 113.68 243.788 113.06C244.248 112.43 244.798 111.975 245.438 111.695C246.088 111.415 246.768 111.275 247.478 111.275C248.478 111.275 249.398 111.655 250.238 112.415C251.088 113.165 251.513 114.115 251.513 115.265C251.513 116.355 251.138 117.29 250.388 118.07C249.638 118.84 248.658 119.225 247.448 119.225C246.258 119.225 245.238 118.84 244.388 118.07C243.538 117.29 243.113 116.36 243.113 115.28ZM244.223 115.295C244.223 116.005 244.548 116.655 245.198 117.245C245.848 117.825 246.603 118.115 247.463 118.115C248.273 118.115 248.963 117.82 249.533 117.23C250.113 116.64 250.403 115.985 250.403 115.265C250.403 114.565 250.128 113.91 249.578 113.3C249.028 112.69 248.318 112.385 247.448 112.385C246.428 112.385 245.633 112.695 245.063 113.315C244.503 113.935 244.223 114.595 244.223 115.295ZM252.649 116.27C252.649 114.93 253.174 113.775 254.224 112.805C255.274 111.835 256.464 111.35 257.794 111.35C258.624 111.35 259.349 111.645 259.969 112.235V111.89C259.969 111.62 260.159 111.485 260.539 111.485C260.689 111.485 260.814 111.52 260.914 111.59C261.024 111.66 261.079 111.76 261.079 111.89V119.075C261.079 120.245 260.699 121.16 259.939 121.82C259.179 122.49 258.294 122.825 257.284 122.825C256.484 122.825 255.814 122.685 255.274 122.405C254.734 122.125 254.459 121.66 254.449 121.01C254.449 120.85 254.499 120.725 254.599 120.635C254.699 120.555 254.824 120.515 254.974 120.515C255.134 120.515 255.269 120.56 255.379 120.65C255.499 120.74 255.559 120.855 255.559 120.995C255.559 121.165 255.604 121.3 255.694 121.4C255.794 121.51 255.949 121.585 256.159 121.625C256.369 121.665 256.549 121.69 256.699 121.7C256.859 121.71 257.079 121.715 257.359 121.715C258.069 121.715 258.679 121.5 259.189 121.07C259.709 120.64 259.969 120.01 259.969 119.18V116.135C259.159 117.185 258.384 117.945 257.644 118.415C256.914 118.885 256.159 119.12 255.379 119.12C254.659 119.12 254.024 118.83 253.474 118.25C252.924 117.66 252.649 117 252.649 116.27ZM253.729 116.3C253.729 116.87 253.929 117.305 254.329 117.605C254.729 117.895 255.154 118.04 255.604 118.04C256.124 118.04 256.719 117.785 257.389 117.275C258.059 116.755 258.614 116.18 259.054 115.55C259.504 114.91 259.729 114.41 259.729 114.05C259.729 113.75 259.639 113.485 259.459 113.255C259.289 113.015 259.074 112.84 258.814 112.73C258.564 112.62 258.334 112.54 258.124 112.49C257.914 112.43 257.739 112.4 257.599 112.4C256.619 112.4 255.729 112.795 254.929 113.585C254.129 114.365 253.729 115.27 253.729 116.3ZM262.881 118.58V111.905C262.881 111.635 263.071 111.5 263.451 111.5C263.601 111.5 263.726 111.535 263.826 111.605C263.936 111.675 263.991 111.775 263.991 111.905V118.58C263.991 118.71 263.936 118.815 263.826 118.895C263.716 118.965 263.586 119 263.436 119C263.066 119 262.881 118.86 262.881 118.58ZM262.881 109.58V109.31C262.881 109.04 263.071 108.905 263.451 108.905C263.601 108.905 263.726 108.94 263.826 109.01C263.936 109.08 263.991 109.18 263.991 109.31V109.58C263.991 109.71 263.936 109.815 263.826 109.895C263.716 109.965 263.586 110 263.436 110C263.066 110 262.881 109.86 262.881 109.58ZM265.466 115.04C265.466 114.4 265.606 113.83 265.886 113.33C266.166 112.83 266.536 112.435 266.996 112.145C267.456 111.855 267.951 111.64 268.481 111.5C269.011 111.35 269.551 111.275 270.101 111.275C271.081 111.275 271.841 111.49 272.381 111.92C272.921 112.34 273.191 112.86 273.191 113.48C273.191 114.15 272.876 114.72 272.246 115.19C271.616 115.66 270.721 115.895 269.561 115.895C268.521 115.895 267.531 115.745 266.591 115.445C266.701 116.185 267.046 116.805 267.626 117.305C268.206 117.805 268.921 118.055 269.771 118.055C270.221 118.055 270.686 117.985 271.166 117.845C271.656 117.705 272.041 117.505 272.321 117.245C272.361 117.165 272.441 117.125 272.561 117.125C272.701 117.125 272.851 117.19 273.011 117.32C273.171 117.44 273.251 117.565 273.251 117.695C273.001 118.205 272.511 118.58 271.781 118.82C271.061 119.05 270.361 119.165 269.681 119.165C268.451 119.165 267.441 118.76 266.651 117.95C265.861 117.14 265.466 116.17 265.466 115.04ZM266.651 114.29C267.401 114.62 268.331 114.785 269.441 114.785C270.311 114.785 270.971 114.65 271.421 114.38C271.871 114.1 272.096 113.79 272.096 113.45C272.096 113.15 271.906 112.9 271.526 112.7C271.156 112.49 270.601 112.385 269.861 112.385C269.061 112.385 268.391 112.565 267.851 112.925C267.321 113.275 266.921 113.73 266.651 114.29ZM274.417 117.575C274.417 117.445 274.472 117.305 274.582 117.155C274.702 117.005 274.837 116.91 274.987 116.87C275.057 116.87 275.092 116.88 275.092 116.9C275.412 117.25 275.872 117.525 276.472 117.725C277.072 117.915 277.542 118.025 277.882 118.055C278.232 118.085 278.557 118.1 278.857 118.1C280.157 118.1 280.807 117.705 280.807 116.915C280.807 116.645 280.707 116.43 280.507 116.27C280.317 116.1 280.052 115.985 279.712 115.925C279.382 115.865 279.047 115.825 278.707 115.805C278.367 115.785 277.997 115.77 277.597 115.76C277.197 115.74 276.892 115.71 276.682 115.67C276.112 115.56 275.607 115.33 275.167 114.98C274.727 114.62 274.507 114.2 274.507 113.72C274.507 112.96 274.887 112.38 275.647 111.98C276.417 111.57 277.262 111.365 278.182 111.365C278.802 111.365 279.467 111.475 280.177 111.695C280.887 111.905 281.417 112.235 281.767 112.685C281.777 112.705 281.782 112.73 281.782 112.76C281.782 112.89 281.722 113.045 281.602 113.225C281.482 113.395 281.367 113.48 281.257 113.48C281.157 113.48 281.057 113.4 280.957 113.24C280.477 112.73 279.522 112.475 278.092 112.475C277.502 112.475 276.942 112.575 276.412 112.775C275.882 112.975 275.617 113.27 275.617 113.66C275.617 113.99 275.847 114.24 276.307 114.41C276.767 114.57 277.257 114.65 277.777 114.65C278.147 114.65 278.457 114.655 278.707 114.665C278.957 114.675 279.262 114.705 279.622 114.755C279.982 114.795 280.282 114.87 280.522 114.98C280.762 115.08 280.997 115.215 281.227 115.385C281.457 115.545 281.627 115.765 281.737 116.045C281.857 116.315 281.917 116.635 281.917 117.005C281.917 117.515 281.757 117.945 281.437 118.295C281.127 118.635 280.767 118.87 280.357 119C279.957 119.14 279.532 119.21 279.082 119.21C276.972 119.21 275.452 118.76 274.522 117.86C274.452 117.79 274.417 117.695 274.417 117.575ZM287.037 118.58V111.905C287.037 111.635 287.227 111.5 287.607 111.5C287.757 111.5 287.882 111.535 287.982 111.605C288.092 111.675 288.147 111.775 288.147 111.905V118.58C288.147 118.71 288.092 118.815 287.982 118.895C287.872 118.965 287.742 119 287.592 119C287.222 119 287.037 118.86 287.037 118.58ZM287.037 109.58V109.31C287.037 109.04 287.227 108.905 287.607 108.905C287.757 108.905 287.882 108.94 287.982 109.01C288.092 109.08 288.147 109.18 288.147 109.31V109.58C288.147 109.71 288.092 109.815 287.982 109.895C287.872 109.965 287.742 110 287.592 110C287.222 110 287.037 109.86 287.037 109.58ZM293.24 115.28C293.24 114.42 293.47 113.68 293.93 113.06C294.39 112.43 294.945 111.975 295.595 111.695C296.245 111.415 296.925 111.275 297.635 111.275C298.535 111.275 299.37 111.585 300.14 112.205C300.22 112.275 300.26 112.365 300.26 112.475C300.26 112.635 300.195 112.785 300.065 112.925C299.935 113.055 299.8 113.12 299.66 113.12C299.56 113.12 299.475 113.085 299.405 113.015C298.925 112.595 298.325 112.385 297.605 112.385C296.585 112.385 295.785 112.695 295.205 113.315C294.635 113.935 294.35 114.595 294.35 115.295C294.35 116.005 294.68 116.655 295.34 117.245C296 117.825 296.76 118.115 297.62 118.115C298.5 118.115 299.215 117.8 299.765 117.17C299.875 117.06 299.97 117.005 300.05 117.005C300.2 117.005 300.345 117.08 300.485 117.23C300.625 117.38 300.695 117.525 300.695 117.665C300.695 117.755 300.66 117.835 300.59 117.905C299.82 118.785 298.855 119.225 297.695 119.225C296.465 119.225 295.415 118.84 294.545 118.07C293.675 117.29 293.24 116.36 293.24 115.28ZM301.785 115.94C301.785 115.85 301.785 115.405 301.785 114.605C301.795 113.795 301.8 112.9 301.8 111.92C301.8 111.79 301.855 111.69 301.965 111.62C302.075 111.54 302.205 111.5 302.355 111.5C302.725 111.5 302.91 111.64 302.91 111.92V115.805C302.91 116.515 303.16 117.07 303.66 117.47C304.17 117.86 304.695 118.055 305.235 118.055C305.915 118.055 306.64 117.81 307.41 117.32C308.19 116.82 308.73 116.2 309.03 115.46V111.905C309.03 111.635 309.22 111.5 309.6 111.5C309.75 111.5 309.875 111.535 309.975 111.605C310.085 111.675 310.14 111.775 310.14 111.905V118.595C310.14 118.725 310.085 118.825 309.975 118.895C309.875 118.965 309.75 119 309.6 119C309.22 119 309.03 118.865 309.03 118.595V117.365C308.53 117.915 307.93 118.35 307.23 118.67C306.54 118.99 305.83 119.15 305.1 119.15C304.16 119.15 303.37 118.85 302.73 118.25C302.1 117.65 301.785 116.88 301.785 115.94ZM311.924 118.58V111.935C311.924 111.665 312.114 111.53 312.494 111.53C312.644 111.53 312.769 111.565 312.869 111.635C312.979 111.705 313.034 111.805 313.034 111.935V113.81C313.414 112.99 313.834 112.37 314.294 111.95C314.764 111.53 315.384 111.32 316.154 111.32C316.694 111.32 317.239 111.39 317.789 111.53C318.079 111.67 318.224 111.86 318.224 112.1C318.224 112.27 318.189 112.39 318.119 112.46C318.049 112.53 317.934 112.575 317.774 112.595C317.264 112.475 316.849 112.415 316.529 112.415C315.789 112.415 315.114 112.78 314.504 113.51C313.894 114.24 313.404 115.19 313.034 116.36V118.58C313.034 118.71 312.979 118.815 312.869 118.895C312.759 118.965 312.629 119 312.479 119C312.109 119 311.924 118.86 311.924 118.58ZM319.263 118.58V111.935C319.263 111.665 319.453 111.53 319.833 111.53C319.983 111.53 320.108 111.565 320.208 111.635C320.318 111.705 320.373 111.805 320.373 111.935V113.81C320.753 112.99 321.173 112.37 321.633 111.95C322.103 111.53 322.723 111.32 323.493 111.32C324.033 111.32 324.578 111.39 325.128 111.53C325.418 111.67 325.563 111.86 325.563 112.1C325.563 112.27 325.528 112.39 325.458 112.46C325.388 112.53 325.273 112.575 325.113 112.595C324.603 112.475 324.188 112.415 323.868 112.415C323.128 112.415 322.453 112.78 321.843 113.51C321.233 114.24 320.743 115.19 320.373 116.36V118.58C320.373 118.71 320.318 118.815 320.208 118.895C320.098 118.965 319.968 119 319.818 119C319.448 119 319.263 118.86 319.263 118.58ZM326.096 115.04C326.096 114.4 326.236 113.83 326.516 113.33C326.796 112.83 327.166 112.435 327.626 112.145C328.086 111.855 328.581 111.64 329.111 111.5C329.641 111.35 330.181 111.275 330.731 111.275C331.711 111.275 332.471 111.49 333.011 111.92C333.551 112.34 333.821 112.86 333.821 113.48C333.821 114.15 333.506 114.72 332.876 115.19C332.246 115.66 331.351 115.895 330.191 115.895C329.151 115.895 328.161 115.745 327.221 115.445C327.331 116.185 327.676 116.805 328.256 117.305C328.836 117.805 329.551 118.055 330.401 118.055C330.851 118.055 331.316 117.985 331.796 117.845C332.286 117.705 332.671 117.505 332.951 117.245C332.991 117.165 333.071 117.125 333.191 117.125C333.331 117.125 333.481 117.19 333.641 117.32C333.801 117.44 333.881 117.565 333.881 117.695C333.631 118.205 333.141 118.58 332.411 118.82C331.691 119.05 330.991 119.165 330.311 119.165C329.081 119.165 328.071 118.76 327.281 117.95C326.491 117.14 326.096 116.17 326.096 115.04ZM327.281 114.29C328.031 114.62 328.961 114.785 330.071 114.785C330.941 114.785 331.601 114.65 332.051 114.38C332.501 114.1 332.726 113.79 332.726 113.45C332.726 113.15 332.536 112.9 332.156 112.7C331.786 112.49 331.231 112.385 330.491 112.385C329.691 112.385 329.021 112.565 328.481 112.925C327.951 113.275 327.551 113.73 327.281 114.29ZM335.362 118.61V111.905C335.362 111.775 335.412 111.675 335.512 111.605C335.622 111.535 335.752 111.5 335.902 111.5C336.282 111.5 336.472 111.635 336.472 111.905V113.09C336.972 112.55 337.577 112.125 338.287 111.815C338.997 111.495 339.717 111.335 340.447 111.335C341.387 111.335 342.172 111.63 342.802 112.22C343.442 112.8 343.762 113.56 343.762 114.5C343.762 114.59 343.757 115.05 343.747 115.88C343.747 116.7 343.747 117.6 343.747 118.58C343.747 118.71 343.692 118.815 343.582 118.895C343.472 118.965 343.342 119 343.192 119C342.822 119 342.637 118.86 342.637 118.58V114.635C342.637 113.925 342.382 113.38 341.872 113C341.372 112.62 340.852 112.43 340.312 112.43C339.582 112.43 338.832 112.675 338.062 113.165C337.302 113.645 336.772 114.255 336.472 114.995V118.61C336.472 118.88 336.282 119.015 335.902 119.015C335.752 119.015 335.622 118.98 335.512 118.91C335.412 118.84 335.362 118.74 335.362 118.61ZM344.901 112.055C344.901 111.905 344.936 111.775 345.006 111.665C345.086 111.555 345.191 111.5 345.321 111.5H345.831V109.655C345.831 109.525 345.881 109.425 345.981 109.355C346.091 109.285 346.221 109.25 346.371 109.25C346.751 109.25 346.941 109.385 346.941 109.655V111.5H349.341C349.471 111.5 349.571 111.555 349.641 111.665C349.711 111.765 349.746 111.89 349.746 112.04C349.746 112.42 349.611 112.61 349.341 112.61H346.941V116.195C346.941 117.315 347.366 117.875 348.216 117.875C348.576 117.875 348.886 117.775 349.146 117.575C349.416 117.375 349.551 117.025 349.551 116.525C349.551 116.385 349.606 116.27 349.716 116.18C349.836 116.09 349.976 116.045 350.136 116.045C350.286 116.045 350.411 116.09 350.511 116.18C350.611 116.26 350.661 116.38 350.661 116.54C350.651 117.33 350.411 117.935 349.941 118.355C349.481 118.775 348.906 118.985 348.216 118.985C346.626 118.985 345.831 117.92 345.831 115.79V112.61H345.321C345.041 112.61 344.901 112.425 344.901 112.055ZM351.812 118.58V108.155C351.812 107.885 352.002 107.75 352.382 107.75C352.532 107.75 352.657 107.785 352.757 107.855C352.867 107.925 352.922 108.025 352.922 108.155V118.58C352.922 118.71 352.867 118.815 352.757 118.895C352.647 118.965 352.517 119 352.367 119C351.997 119 351.812 118.86 351.812 118.58ZM354.637 115.94V111.89C354.637 111.76 354.687 111.66 354.787 111.59C354.897 111.51 355.022 111.47 355.162 111.47C355.532 111.47 355.717 111.61 355.717 111.89V115.805C355.717 116.175 355.817 116.505 356.017 116.795C356.217 117.085 356.467 117.305 356.767 117.455C357.077 117.605 357.377 117.72 357.667 117.8C357.967 117.87 358.242 117.905 358.492 117.905C359.202 117.905 359.872 117.685 360.502 117.245C361.132 116.805 361.577 116.22 361.837 115.49V111.89C361.837 111.62 362.027 111.485 362.407 111.485C362.557 111.485 362.682 111.52 362.782 111.59C362.892 111.66 362.947 111.76 362.947 111.89V119.075C362.947 119.665 362.812 120.205 362.542 120.695C362.282 121.195 361.942 121.595 361.522 121.895C361.102 122.195 360.647 122.425 360.157 122.585C359.667 122.745 359.182 122.825 358.702 122.825C357.882 122.825 357.077 122.635 356.287 122.255C355.507 121.875 355.112 121.365 355.102 120.725C355.102 120.565 355.152 120.44 355.252 120.35C355.362 120.27 355.492 120.23 355.642 120.23C355.802 120.23 355.942 120.275 356.062 120.365C356.182 120.455 356.242 120.57 356.242 120.71C356.242 121.03 356.527 121.275 357.097 121.445C357.667 121.625 358.227 121.715 358.777 121.715C359.227 121.715 359.672 121.63 360.112 121.46C360.562 121.3 360.962 121.015 361.312 120.605C361.662 120.205 361.837 119.73 361.837 119.18V117.44C360.927 118.48 359.767 119 358.357 119C357.377 119 356.512 118.72 355.762 118.16C355.012 117.59 354.637 116.85 354.637 115.94ZM368.26 115.94C368.26 115.85 368.26 115.405 368.26 114.605C368.27 113.795 368.275 112.9 368.275 111.92C368.275 111.79 368.33 111.69 368.44 111.62C368.55 111.54 368.68 111.5 368.83 111.5C369.2 111.5 369.385 111.64 369.385 111.92V115.805C369.385 116.515 369.635 117.07 370.135 117.47C370.645 117.86 371.17 118.055 371.71 118.055C372.39 118.055 373.115 117.81 373.885 117.32C374.665 116.82 375.205 116.2 375.505 115.46V111.905C375.505 111.635 375.695 111.5 376.075 111.5C376.225 111.5 376.35 111.535 376.45 111.605C376.56 111.675 376.615 111.775 376.615 111.905V118.595C376.615 118.725 376.56 118.825 376.45 118.895C376.35 118.965 376.225 119 376.075 119C375.695 119 375.505 118.865 375.505 118.595V117.365C375.005 117.915 374.405 118.35 373.705 118.67C373.015 118.99 372.305 119.15 371.575 119.15C370.635 119.15 369.845 118.85 369.205 118.25C368.575 117.65 368.26 116.88 368.26 115.94ZM378.099 117.575C378.099 117.445 378.154 117.305 378.264 117.155C378.384 117.005 378.519 116.91 378.669 116.87C378.739 116.87 378.774 116.88 378.774 116.9C379.094 117.25 379.554 117.525 380.154 117.725C380.754 117.915 381.224 118.025 381.564 118.055C381.914 118.085 382.239 118.1 382.539 118.1C383.839 118.1 384.489 117.705 384.489 116.915C384.489 116.645 384.389 116.43 384.189 116.27C383.999 116.1 383.734 115.985 383.394 115.925C383.064 115.865 382.729 115.825 382.389 115.805C382.049 115.785 381.679 115.77 381.279 115.76C380.879 115.74 380.574 115.71 380.364 115.67C379.794 115.56 379.289 115.33 378.849 114.98C378.409 114.62 378.189 114.2 378.189 113.72C378.189 112.96 378.569 112.38 379.329 111.98C380.099 111.57 380.944 111.365 381.864 111.365C382.484 111.365 383.149 111.475 383.859 111.695C384.569 111.905 385.099 112.235 385.449 112.685C385.459 112.705 385.464 112.73 385.464 112.76C385.464 112.89 385.404 113.045 385.284 113.225C385.164 113.395 385.049 113.48 384.939 113.48C384.839 113.48 384.739 113.4 384.639 113.24C384.159 112.73 383.204 112.475 381.774 112.475C381.184 112.475 380.624 112.575 380.094 112.775C379.564 112.975 379.299 113.27 379.299 113.66C379.299 113.99 379.529 114.24 379.989 114.41C380.449 114.57 380.939 114.65 381.459 114.65C381.829 114.65 382.139 114.655 382.389 114.665C382.639 114.675 382.944 114.705 383.304 114.755C383.664 114.795 383.964 114.87 384.204 114.98C384.444 115.08 384.679 115.215 384.909 115.385C385.139 115.545 385.309 115.765 385.419 116.045C385.539 116.315 385.599 116.635 385.599 117.005C385.599 117.515 385.439 117.945 385.119 118.295C384.809 118.635 384.449 118.87 384.039 119C383.639 119.14 383.214 119.21 382.764 119.21C380.654 119.21 379.134 118.76 378.204 117.86C378.134 117.79 378.099 117.695 378.099 117.575ZM386.77 115.04C386.77 114.4 386.91 113.83 387.19 113.33C387.47 112.83 387.84 112.435 388.3 112.145C388.76 111.855 389.255 111.64 389.785 111.5C390.315 111.35 390.855 111.275 391.405 111.275C392.385 111.275 393.145 111.49 393.685 111.92C394.225 112.34 394.495 112.86 394.495 113.48C394.495 114.15 394.18 114.72 393.55 115.19C392.92 115.66 392.025 115.895 390.865 115.895C389.825 115.895 388.835 115.745 387.895 115.445C388.005 116.185 388.35 116.805 388.93 117.305C389.51 117.805 390.225 118.055 391.075 118.055C391.525 118.055 391.99 117.985 392.47 117.845C392.96 117.705 393.345 117.505 393.625 117.245C393.665 117.165 393.745 117.125 393.865 117.125C394.005 117.125 394.155 117.19 394.315 117.32C394.475 117.44 394.555 117.565 394.555 117.695C394.305 118.205 393.815 118.58 393.085 118.82C392.365 119.05 391.665 119.165 390.985 119.165C389.755 119.165 388.745 118.76 387.955 117.95C387.165 117.14 386.77 116.17 386.77 115.04ZM387.955 114.29C388.705 114.62 389.635 114.785 390.745 114.785C391.615 114.785 392.275 114.65 392.725 114.38C393.175 114.1 393.4 113.79 393.4 113.45C393.4 113.15 393.21 112.9 392.83 112.7C392.46 112.49 391.905 112.385 391.165 112.385C390.365 112.385 389.695 112.565 389.155 112.925C388.625 113.275 388.225 113.73 387.955 114.29ZM396.006 117.98C396.006 117.72 396.101 117.51 396.291 117.35C396.491 117.19 396.746 117.11 397.056 117.11C397.706 117.11 398.031 117.49 398.031 118.25C398.031 118.68 397.841 119.165 397.461 119.705C397.081 120.245 396.796 120.515 396.606 120.515C396.426 120.515 396.336 120.455 396.336 120.335C396.336 120.285 396.376 120.115 396.456 119.825C396.546 119.545 396.591 119.34 396.591 119.21C396.591 119.08 396.556 118.995 396.486 118.955C396.166 118.735 396.006 118.41 396.006 117.98ZM81.9 136.58V126.14C81.9 125.88 82.09 125.75 82.47 125.75C82.83 125.75 83.01 125.88 83.01 126.14V130.235C83.63 129.645 84.355 129.35 85.185 129.35C86.515 129.35 87.705 129.835 88.755 130.805C89.805 131.775 90.33 132.93 90.33 134.27C90.33 135 90.055 135.66 89.505 136.25C88.955 136.83 88.32 137.12 87.6 137.12C86.82 137.12 86.06 136.885 85.32 136.415C84.59 135.945 83.82 135.185 83.01 134.135V136.58C83.01 136.71 82.955 136.815 82.845 136.895C82.735 136.965 82.605 137 82.455 137C82.085 137 81.9 136.86 81.9 136.58ZM83.25 132.05C83.25 132.41 83.47 132.91 83.91 133.55C84.36 134.18 84.92 134.755 85.59 135.275C86.26 135.785 86.855 136.04 87.375 136.04C87.825 136.04 88.25 135.895 88.65 135.605C89.05 135.305 89.25 134.87 89.25 134.3C89.25 133.27 88.85 132.365 88.05 131.585C87.25 130.795 86.36 130.4 85.38 130.4C85.24 130.4 85.065 130.43 84.855 130.49C84.645 130.54 84.41 130.62 84.15 130.73C83.9 130.84 83.685 131.015 83.505 131.255C83.335 131.485 83.25 131.75 83.25 132.05ZM91.6973 133.94C91.6973 133.85 91.6973 133.405 91.6973 132.605C91.7073 131.795 91.7123 130.9 91.7123 129.92C91.7123 129.79 91.7673 129.69 91.8773 129.62C91.9873 129.54 92.1173 129.5 92.2673 129.5C92.6373 129.5 92.8223 129.64 92.8223 129.92V133.805C92.8223 134.515 93.0723 135.07 93.5723 135.47C94.0823 135.86 94.6073 136.055 95.1473 136.055C95.8273 136.055 96.5523 135.81 97.3223 135.32C98.1023 134.82 98.6423 134.2 98.9423 133.46V129.905C98.9423 129.635 99.1323 129.5 99.5123 129.5C99.6623 129.5 99.7873 129.535 99.8873 129.605C99.9973 129.675 100.052 129.775 100.052 129.905V136.595C100.052 136.725 99.9973 136.825 99.8873 136.895C99.7873 136.965 99.6623 137 99.5123 137C99.1323 137 98.9423 136.865 98.9423 136.595V135.365C98.4423 135.915 97.8423 136.35 97.1423 136.67C96.4523 136.99 95.7423 137.15 95.0123 137.15C94.0723 137.15 93.2823 136.85 92.6423 136.25C92.0123 135.65 91.6973 134.88 91.6973 133.94ZM101.356 130.055C101.356 129.905 101.391 129.775 101.461 129.665C101.541 129.555 101.646 129.5 101.776 129.5H102.286V127.655C102.286 127.525 102.336 127.425 102.436 127.355C102.546 127.285 102.676 127.25 102.826 127.25C103.206 127.25 103.396 127.385 103.396 127.655V129.5H105.796C105.926 129.5 106.026 129.555 106.096 129.665C106.166 129.765 106.201 129.89 106.201 130.04C106.201 130.42 106.066 130.61 105.796 130.61H103.396V134.195C103.396 135.315 103.821 135.875 104.671 135.875C105.031 135.875 105.341 135.775 105.601 135.575C105.871 135.375 106.006 135.025 106.006 134.525C106.006 134.385 106.061 134.27 106.171 134.18C106.291 134.09 106.431 134.045 106.591 134.045C106.741 134.045 106.866 134.09 106.966 134.18C107.066 134.26 107.116 134.38 107.116 134.54C107.106 135.33 106.866 135.935 106.396 136.355C105.936 136.775 105.361 136.985 104.671 136.985C103.081 136.985 102.286 135.92 102.286 133.79V130.61H101.776C101.496 130.61 101.356 130.425 101.356 130.055ZM111.885 136.58V126.155C111.885 125.885 112.075 125.75 112.455 125.75C112.605 125.75 112.73 125.785 112.83 125.855C112.94 125.925 112.995 126.025 112.995 126.155V136.58C112.995 136.71 112.94 136.815 112.83 136.895C112.72 136.965 112.59 137 112.44 137C112.07 137 111.885 136.86 111.885 136.58ZM114.47 133.04C114.47 132.4 114.61 131.83 114.89 131.33C115.17 130.83 115.54 130.435 116 130.145C116.46 129.855 116.955 129.64 117.485 129.5C118.015 129.35 118.555 129.275 119.105 129.275C120.085 129.275 120.845 129.49 121.385 129.92C121.925 130.34 122.195 130.86 122.195 131.48C122.195 132.15 121.88 132.72 121.25 133.19C120.62 133.66 119.725 133.895 118.565 133.895C117.525 133.895 116.535 133.745 115.595 133.445C115.705 134.185 116.05 134.805 116.63 135.305C117.21 135.805 117.925 136.055 118.775 136.055C119.225 136.055 119.69 135.985 120.17 135.845C120.66 135.705 121.045 135.505 121.325 135.245C121.365 135.165 121.445 135.125 121.565 135.125C121.705 135.125 121.855 135.19 122.015 135.32C122.175 135.44 122.255 135.565 122.255 135.695C122.005 136.205 121.515 136.58 120.785 136.82C120.065 137.05 119.365 137.165 118.685 137.165C117.455 137.165 116.445 136.76 115.655 135.95C114.865 135.14 114.47 134.17 114.47 133.04ZM115.655 132.29C116.405 132.62 117.335 132.785 118.445 132.785C119.315 132.785 119.975 132.65 120.425 132.38C120.875 132.1 121.1 131.79 121.1 131.45C121.1 131.15 120.91 130.9 120.53 130.7C120.16 130.49 119.605 130.385 118.865 130.385C118.065 130.385 117.395 130.565 116.855 130.925C116.325 131.275 115.925 131.73 115.655 132.29ZM123.406 134.27C123.406 132.93 123.931 131.775 124.981 130.805C126.031 129.835 127.221 129.35 128.551 129.35C129.461 129.35 130.236 129.695 130.876 130.385C131.516 131.075 131.836 131.86 131.836 132.74L131.821 136.67C131.821 136.8 131.756 136.905 131.626 136.985C131.506 137.055 131.371 137.09 131.221 137.09C130.891 137.09 130.726 136.95 130.726 136.67V134.135C129.916 135.185 129.141 135.945 128.401 136.415C127.671 136.885 126.916 137.12 126.136 137.12C125.416 137.12 124.781 136.83 124.231 136.25C123.681 135.66 123.406 135 123.406 134.27ZM124.486 134.3C124.486 134.87 124.686 135.305 125.086 135.605C125.486 135.895 125.911 136.04 126.361 136.04C126.881 136.04 127.476 135.785 128.146 135.275C128.816 134.755 129.371 134.18 129.811 133.55C130.261 132.91 130.486 132.41 130.486 132.05C130.486 131.75 130.396 131.485 130.216 131.255C130.046 131.015 129.831 130.84 129.571 130.73C129.321 130.62 129.091 130.54 128.881 130.49C128.671 130.43 128.496 130.4 128.356 130.4C127.376 130.4 126.486 130.795 125.686 131.585C124.886 132.365 124.486 133.27 124.486 134.3ZM133.506 136.58V129.935C133.506 129.665 133.696 129.53 134.076 129.53C134.226 129.53 134.351 129.565 134.451 129.635C134.561 129.705 134.616 129.805 134.616 129.935V131.81C134.996 130.99 135.416 130.37 135.876 129.95C136.346 129.53 136.966 129.32 137.736 129.32C138.276 129.32 138.821 129.39 139.371 129.53C139.661 129.67 139.806 129.86 139.806 130.1C139.806 130.27 139.771 130.39 139.701 130.46C139.631 130.53 139.516 130.575 139.356 130.595C138.846 130.475 138.431 130.415 138.111 130.415C137.371 130.415 136.696 130.78 136.086 131.51C135.476 132.24 134.986 133.19 134.616 134.36V136.58C134.616 136.71 134.561 136.815 134.451 136.895C134.341 136.965 134.211 137 134.061 137C133.691 137 133.506 136.86 133.506 136.58ZM140.86 136.61V129.905C140.86 129.775 140.91 129.675 141.01 129.605C141.12 129.535 141.25 129.5 141.4 129.5C141.78 129.5 141.97 129.635 141.97 129.905V131.09C142.47 130.55 143.075 130.125 143.785 129.815C144.495 129.495 145.215 129.335 145.945 129.335C146.885 129.335 147.67 129.63 148.3 130.22C148.94 130.8 149.26 131.56 149.26 132.5C149.26 132.59 149.255 133.05 149.245 133.88C149.245 134.7 149.245 135.6 149.245 136.58C149.245 136.71 149.19 136.815 149.08 136.895C148.97 136.965 148.84 137 148.69 137C148.32 137 148.135 136.86 148.135 136.58V132.635C148.135 131.925 147.88 131.38 147.37 131C146.87 130.62 146.35 130.43 145.81 130.43C145.08 130.43 144.33 130.675 143.56 131.165C142.8 131.645 142.27 132.255 141.97 132.995V136.61C141.97 136.88 141.78 137.015 141.4 137.015C141.25 137.015 141.12 136.98 141.01 136.91C140.91 136.84 140.86 136.74 140.86 136.61ZM150.953 136.58V129.905C150.953 129.635 151.143 129.5 151.523 129.5C151.673 129.5 151.798 129.535 151.898 129.605C152.008 129.675 152.063 129.775 152.063 129.905V136.58C152.063 136.71 152.008 136.815 151.898 136.895C151.788 136.965 151.658 137 151.508 137C151.138 137 150.953 136.86 150.953 136.58ZM150.953 127.58V127.31C150.953 127.04 151.143 126.905 151.523 126.905C151.673 126.905 151.798 126.94 151.898 127.01C152.008 127.08 152.063 127.18 152.063 127.31V127.58C152.063 127.71 152.008 127.815 151.898 127.895C151.788 127.965 151.658 128 151.508 128C151.138 128 150.953 127.86 150.953 127.58ZM153.868 136.61V129.905C153.868 129.775 153.918 129.675 154.018 129.605C154.128 129.535 154.258 129.5 154.408 129.5C154.788 129.5 154.978 129.635 154.978 129.905V131.09C155.478 130.55 156.083 130.125 156.793 129.815C157.503 129.495 158.223 129.335 158.953 129.335C159.893 129.335 160.678 129.63 161.308 130.22C161.948 130.8 162.268 131.56 162.268 132.5C162.268 132.59 162.263 133.05 162.253 133.88C162.253 134.7 162.253 135.6 162.253 136.58C162.253 136.71 162.198 136.815 162.088 136.895C161.978 136.965 161.848 137 161.698 137C161.328 137 161.143 136.86 161.143 136.58V132.635C161.143 131.925 160.888 131.38 160.378 131C159.878 130.62 159.358 130.43 158.818 130.43C158.088 130.43 157.338 130.675 156.568 131.165C155.808 131.645 155.278 132.255 154.978 132.995V136.61C154.978 136.88 154.788 137.015 154.408 137.015C154.258 137.015 154.128 136.98 154.018 136.91C153.918 136.84 153.868 136.74 153.868 136.61ZM163.631 134.27C163.631 132.93 164.156 131.775 165.206 130.805C166.256 129.835 167.446 129.35 168.776 129.35C169.606 129.35 170.331 129.645 170.951 130.235V129.89C170.951 129.62 171.141 129.485 171.521 129.485C171.671 129.485 171.796 129.52 171.896 129.59C172.006 129.66 172.061 129.76 172.061 129.89V137.075C172.061 138.245 171.681 139.16 170.921 139.82C170.161 140.49 169.276 140.825 168.266 140.825C167.466 140.825 166.796 140.685 166.256 140.405C165.716 140.125 165.441 139.66 165.431 139.01C165.431 138.85 165.481 138.725 165.581 138.635C165.681 138.555 165.806 138.515 165.956 138.515C166.116 138.515 166.251 138.56 166.361 138.65C166.481 138.74 166.541 138.855 166.541 138.995C166.541 139.165 166.586 139.3 166.676 139.4C166.776 139.51 166.931 139.585 167.141 139.625C167.351 139.665 167.531 139.69 167.681 139.7C167.841 139.71 168.061 139.715 168.341 139.715C169.051 139.715 169.661 139.5 170.171 139.07C170.691 138.64 170.951 138.01 170.951 137.18V134.135C170.141 135.185 169.366 135.945 168.626 136.415C167.896 136.885 167.141 137.12 166.361 137.12C165.641 137.12 165.006 136.83 164.456 136.25C163.906 135.66 163.631 135 163.631 134.27ZM164.711 134.3C164.711 134.87 164.911 135.305 165.311 135.605C165.711 135.895 166.136 136.04 166.586 136.04C167.106 136.04 167.701 135.785 168.371 135.275C169.041 134.755 169.596 134.18 170.036 133.55C170.486 132.91 170.711 132.41 170.711 132.05C170.711 131.75 170.621 131.485 170.441 131.255C170.271 131.015 170.056 130.84 169.796 130.73C169.546 130.62 169.316 130.54 169.106 130.49C168.896 130.43 168.721 130.4 168.581 130.4C167.601 130.4 166.711 130.795 165.911 131.585C165.111 132.365 164.711 133.27 164.711 134.3ZM177.481 136.61V129.905C177.481 129.775 177.531 129.675 177.631 129.605C177.741 129.535 177.871 129.5 178.021 129.5C178.401 129.5 178.591 129.635 178.591 129.905V131.09C179.091 130.55 179.696 130.125 180.406 129.815C181.116 129.495 181.836 129.335 182.566 129.335C183.506 129.335 184.291 129.63 184.921 130.22C185.561 130.8 185.881 131.56 185.881 132.5C185.881 132.59 185.876 133.05 185.866 133.88C185.866 134.7 185.866 135.6 185.866 136.58C185.866 136.71 185.811 136.815 185.701 136.895C185.591 136.965 185.461 137 185.311 137C184.941 137 184.756 136.86 184.756 136.58V132.635C184.756 131.925 184.501 131.38 183.991 131C183.491 130.62 182.971 130.43 182.431 130.43C181.701 130.43 180.951 130.675 180.181 131.165C179.421 131.645 178.891 132.255 178.591 132.995V136.61C178.591 136.88 178.401 137.015 178.021 137.015C177.871 137.015 177.741 136.98 177.631 136.91C177.531 136.84 177.481 136.74 177.481 136.61ZM187.244 133.04C187.244 132.4 187.384 131.83 187.664 131.33C187.944 130.83 188.314 130.435 188.774 130.145C189.234 129.855 189.729 129.64 190.259 129.5C190.789 129.35 191.329 129.275 191.879 129.275C192.859 129.275 193.619 129.49 194.159 129.92C194.699 130.34 194.969 130.86 194.969 131.48C194.969 132.15 194.654 132.72 194.024 133.19C193.394 133.66 192.499 133.895 191.339 133.895C190.299 133.895 189.309 133.745 188.369 133.445C188.479 134.185 188.824 134.805 189.404 135.305C189.984 135.805 190.699 136.055 191.549 136.055C191.999 136.055 192.464 135.985 192.944 135.845C193.434 135.705 193.819 135.505 194.099 135.245C194.139 135.165 194.219 135.125 194.339 135.125C194.479 135.125 194.629 135.19 194.789 135.32C194.949 135.44 195.029 135.565 195.029 135.695C194.779 136.205 194.289 136.58 193.559 136.82C192.839 137.05 192.139 137.165 191.459 137.165C190.229 137.165 189.219 136.76 188.429 135.95C187.639 135.14 187.244 134.17 187.244 133.04ZM188.429 132.29C189.179 132.62 190.109 132.785 191.219 132.785C192.089 132.785 192.749 132.65 193.199 132.38C193.649 132.1 193.874 131.79 193.874 131.45C193.874 131.15 193.684 130.9 193.304 130.7C192.934 130.49 192.379 130.385 191.639 130.385C190.839 130.385 190.169 130.565 189.629 130.925C189.099 131.275 188.699 131.73 188.429 132.29ZM195.924 130.04C195.924 129.9 196.004 129.775 196.164 129.665C196.334 129.555 196.489 129.5 196.629 129.5C196.789 129.5 196.909 129.575 196.989 129.725L199.464 135.2L201.489 130.25C201.509 130.21 201.539 130.135 201.579 130.025C201.619 129.915 201.649 129.84 201.669 129.8C201.689 129.76 201.714 129.71 201.744 129.65C201.784 129.59 201.829 129.55 201.879 129.53C201.929 129.51 201.984 129.5 202.044 129.5C202.104 129.5 202.159 129.52 202.209 129.56C202.269 129.6 202.319 129.655 202.359 129.725C202.409 129.795 202.444 129.86 202.464 129.92C202.494 129.98 202.524 130.05 202.554 130.13C202.584 130.2 202.599 130.24 202.599 130.25L204.699 135.2L206.889 129.725C206.969 129.575 207.089 129.5 207.249 129.5C207.399 129.5 207.549 129.56 207.699 129.68C207.859 129.79 207.939 129.91 207.939 130.04C207.939 130.09 207.924 130.145 207.894 130.205L205.314 136.475C205.254 136.635 205.164 136.765 205.044 136.865C204.924 136.955 204.809 137 204.699 137C204.469 137 204.269 136.825 204.099 136.475L202.059 132.035L200.079 136.475C200.009 136.625 199.914 136.75 199.794 136.85C199.684 136.95 199.574 137 199.464 137C199.224 137 199.019 136.825 198.849 136.475L195.969 130.205C195.939 130.145 195.924 130.09 195.924 130.04ZM212.216 130.055C212.216 129.905 212.251 129.775 212.321 129.665C212.401 129.555 212.506 129.5 212.636 129.5H213.146V127.655C213.146 127.525 213.196 127.425 213.296 127.355C213.406 127.285 213.536 127.25 213.686 127.25C214.066 127.25 214.256 127.385 214.256 127.655V129.5H216.656C216.786 129.5 216.886 129.555 216.956 129.665C217.026 129.765 217.061 129.89 217.061 130.04C217.061 130.42 216.926 130.61 216.656 130.61H214.256V134.195C214.256 135.315 214.681 135.875 215.531 135.875C215.891 135.875 216.201 135.775 216.461 135.575C216.731 135.375 216.866 135.025 216.866 134.525C216.866 134.385 216.921 134.27 217.031 134.18C217.151 134.09 217.291 134.045 217.451 134.045C217.601 134.045 217.726 134.09 217.826 134.18C217.926 134.26 217.976 134.38 217.976 134.54C217.966 135.33 217.726 135.935 217.256 136.355C216.796 136.775 216.221 136.985 215.531 136.985C213.941 136.985 213.146 135.92 213.146 133.79V130.61H212.636C212.356 130.61 212.216 130.425 212.216 130.055ZM219.127 136.61V126.14C219.127 126.01 219.177 125.91 219.277 125.84C219.387 125.77 219.517 125.735 219.667 125.735C220.047 125.735 220.237 125.87 220.237 126.14V131.12C220.727 130.6 221.327 130.19 222.037 129.89C222.747 129.59 223.472 129.44 224.212 129.44C225.162 129.44 225.952 129.72 226.582 130.28C227.212 130.83 227.527 131.57 227.527 132.5C227.527 132.59 227.522 133.05 227.512 133.88C227.512 134.7 227.512 135.6 227.512 136.58C227.512 136.71 227.457 136.815 227.347 136.895C227.237 136.965 227.107 137 226.957 137C226.587 137 226.402 136.86 226.402 136.58V132.635C226.402 132.145 226.262 131.735 225.982 131.405C225.712 131.065 225.412 130.835 225.082 130.715C224.752 130.595 224.417 130.535 224.077 130.535C223.337 130.535 222.582 130.765 221.812 131.225C221.052 131.685 220.527 132.275 220.237 132.995V136.61C220.237 136.88 220.047 137.015 219.667 137.015C219.517 137.015 219.387 136.98 219.277 136.91C219.177 136.84 219.127 136.74 219.127 136.61ZM229.219 136.58V129.905C229.219 129.635 229.409 129.5 229.789 129.5C229.939 129.5 230.064 129.535 230.164 129.605C230.274 129.675 230.329 129.775 230.329 129.905V136.58C230.329 136.71 230.274 136.815 230.164 136.895C230.054 136.965 229.924 137 229.774 137C229.404 137 229.219 136.86 229.219 136.58ZM229.219 127.58V127.31C229.219 127.04 229.409 126.905 229.789 126.905C229.939 126.905 230.064 126.94 230.164 127.01C230.274 127.08 230.329 127.18 230.329 127.31V127.58C230.329 127.71 230.274 127.815 230.164 127.895C230.054 127.965 229.924 128 229.774 128C229.404 128 229.219 127.86 229.219 127.58ZM232.134 136.61V129.905C232.134 129.775 232.184 129.675 232.284 129.605C232.394 129.535 232.524 129.5 232.674 129.5C233.054 129.5 233.244 129.635 233.244 129.905V131.09C233.744 130.55 234.349 130.125 235.059 129.815C235.769 129.495 236.489 129.335 237.219 129.335C238.159 129.335 238.944 129.63 239.574 130.22C240.214 130.8 240.534 131.56 240.534 132.5C240.534 132.59 240.529 133.05 240.519 133.88C240.519 134.7 240.519 135.6 240.519 136.58C240.519 136.71 240.464 136.815 240.354 136.895C240.244 136.965 240.114 137 239.964 137C239.594 137 239.409 136.86 239.409 136.58V132.635C239.409 131.925 239.154 131.38 238.644 131C238.144 130.62 237.624 130.43 237.084 130.43C236.354 130.43 235.604 130.675 234.834 131.165C234.074 131.645 233.544 132.255 233.244 132.995V136.61C233.244 136.88 233.054 137.015 232.674 137.015C232.524 137.015 232.394 136.98 232.284 136.91C232.184 136.84 232.134 136.74 232.134 136.61ZM241.897 134.27C241.897 132.93 242.422 131.775 243.472 130.805C244.522 129.835 245.712 129.35 247.042 129.35C247.872 129.35 248.597 129.645 249.217 130.235V129.89C249.217 129.62 249.407 129.485 249.787 129.485C249.937 129.485 250.062 129.52 250.162 129.59C250.272 129.66 250.327 129.76 250.327 129.89V137.075C250.327 138.245 249.947 139.16 249.187 139.82C248.427 140.49 247.542 140.825 246.532 140.825C245.732 140.825 245.062 140.685 244.522 140.405C243.982 140.125 243.707 139.66 243.697 139.01C243.697 138.85 243.747 138.725 243.847 138.635C243.947 138.555 244.072 138.515 244.222 138.515C244.382 138.515 244.517 138.56 244.627 138.65C244.747 138.74 244.807 138.855 244.807 138.995C244.807 139.165 244.852 139.3 244.942 139.4C245.042 139.51 245.197 139.585 245.407 139.625C245.617 139.665 245.797 139.69 245.947 139.7C246.107 139.71 246.327 139.715 246.607 139.715C247.317 139.715 247.927 139.5 248.437 139.07C248.957 138.64 249.217 138.01 249.217 137.18V134.135C248.407 135.185 247.632 135.945 246.892 136.415C246.162 136.885 245.407 137.12 244.627 137.12C243.907 137.12 243.272 136.83 242.722 136.25C242.172 135.66 241.897 135 241.897 134.27ZM242.977 134.3C242.977 134.87 243.177 135.305 243.577 135.605C243.977 135.895 244.402 136.04 244.852 136.04C245.372 136.04 245.967 135.785 246.637 135.275C247.307 134.755 247.862 134.18 248.302 133.55C248.752 132.91 248.977 132.41 248.977 132.05C248.977 131.75 248.887 131.485 248.707 131.255C248.537 131.015 248.322 130.84 248.062 130.73C247.812 130.62 247.582 130.54 247.372 130.49C247.162 130.43 246.987 130.4 246.847 130.4C245.867 130.4 244.977 130.795 244.177 131.585C243.377 132.365 242.977 133.27 242.977 134.3ZM251.814 135.575C251.814 135.445 251.869 135.305 251.979 135.155C252.099 135.005 252.234 134.91 252.384 134.87C252.454 134.87 252.489 134.88 252.489 134.9C252.809 135.25 253.269 135.525 253.869 135.725C254.469 135.915 254.939 136.025 255.279 136.055C255.629 136.085 255.954 136.1 256.254 136.1C257.554 136.1 258.204 135.705 258.204 134.915C258.204 134.645 258.104 134.43 257.904 134.27C257.714 134.1 257.449 133.985 257.109 133.925C256.779 133.865 256.444 133.825 256.104 133.805C255.764 133.785 255.394 133.77 254.994 133.76C254.594 133.74 254.289 133.71 254.079 133.67C253.509 133.56 253.004 133.33 252.564 132.98C252.124 132.62 251.904 132.2 251.904 131.72C251.904 130.96 252.284 130.38 253.044 129.98C253.814 129.57 254.659 129.365 255.579 129.365C256.199 129.365 256.864 129.475 257.574 129.695C258.284 129.905 258.814 130.235 259.164 130.685C259.174 130.705 259.179 130.73 259.179 130.76C259.179 130.89 259.119 131.045 258.999 131.225C258.879 131.395 258.764 131.48 258.654 131.48C258.554 131.48 258.454 131.4 258.354 131.24C257.874 130.73 256.919 130.475 255.489 130.475C254.899 130.475 254.339 130.575 253.809 130.775C253.279 130.975 253.014 131.27 253.014 131.66C253.014 131.99 253.244 132.24 253.704 132.41C254.164 132.57 254.654 132.65 255.174 132.65C255.544 132.65 255.854 132.655 256.104 132.665C256.354 132.675 256.659 132.705 257.019 132.755C257.379 132.795 257.679 132.87 257.919 132.98C258.159 133.08 258.394 133.215 258.624 133.385C258.854 133.545 259.024 133.765 259.134 134.045C259.254 134.315 259.314 134.635 259.314 135.005C259.314 135.515 259.154 135.945 258.834 136.295C258.524 136.635 258.164 136.87 257.754 137C257.354 137.14 256.929 137.21 256.479 137.21C254.369 137.21 252.849 136.76 251.919 135.86C251.849 135.79 251.814 135.695 251.814 135.575ZM264.434 136.58V129.905C264.434 129.635 264.624 129.5 265.004 129.5C265.154 129.5 265.279 129.535 265.379 129.605C265.489 129.675 265.544 129.775 265.544 129.905V136.58C265.544 136.71 265.489 136.815 265.379 136.895C265.269 136.965 265.139 137 264.989 137C264.619 137 264.434 136.86 264.434 136.58ZM264.434 127.58V127.31C264.434 127.04 264.624 126.905 265.004 126.905C265.154 126.905 265.279 126.94 265.379 127.01C265.489 127.08 265.544 127.18 265.544 127.31V127.58C265.544 127.71 265.489 127.815 265.379 127.895C265.269 127.965 265.139 128 264.989 128C264.619 128 264.434 127.86 264.434 127.58ZM267.034 135.575C267.034 135.445 267.089 135.305 267.199 135.155C267.319 135.005 267.454 134.91 267.604 134.87C267.674 134.87 267.709 134.88 267.709 134.9C268.029 135.25 268.489 135.525 269.089 135.725C269.689 135.915 270.159 136.025 270.499 136.055C270.849 136.085 271.174 136.1 271.474 136.1C272.774 136.1 273.424 135.705 273.424 134.915C273.424 134.645 273.324 134.43 273.124 134.27C272.934 134.1 272.669 133.985 272.329 133.925C271.999 133.865 271.664 133.825 271.324 133.805C270.984 133.785 270.614 133.77 270.214 133.76C269.814 133.74 269.509 133.71 269.299 133.67C268.729 133.56 268.224 133.33 267.784 132.98C267.344 132.62 267.124 132.2 267.124 131.72C267.124 130.96 267.504 130.38 268.264 129.98C269.034 129.57 269.879 129.365 270.799 129.365C271.419 129.365 272.084 129.475 272.794 129.695C273.504 129.905 274.034 130.235 274.384 130.685C274.394 130.705 274.399 130.73 274.399 130.76C274.399 130.89 274.339 131.045 274.219 131.225C274.099 131.395 273.984 131.48 273.874 131.48C273.774 131.48 273.674 131.4 273.574 131.24C273.094 130.73 272.139 130.475 270.709 130.475C270.119 130.475 269.559 130.575 269.029 130.775C268.499 130.975 268.234 131.27 268.234 131.66C268.234 131.99 268.464 132.24 268.924 132.41C269.384 132.57 269.874 132.65 270.394 132.65C270.764 132.65 271.074 132.655 271.324 132.665C271.574 132.675 271.879 132.705 272.239 132.755C272.599 132.795 272.899 132.87 273.139 132.98C273.379 133.08 273.614 133.215 273.844 133.385C274.074 133.545 274.244 133.765 274.354 134.045C274.474 134.315 274.534 134.635 274.534 135.005C274.534 135.515 274.374 135.945 274.054 136.295C273.744 136.635 273.384 136.87 272.974 137C272.574 137.14 272.149 137.21 271.699 137.21C269.589 137.21 268.069 136.76 267.139 135.86C267.069 135.79 267.034 135.695 267.034 135.575ZM279.324 134.27C279.324 132.93 279.849 131.775 280.899 130.805C281.949 129.835 283.139 129.35 284.469 129.35C285.379 129.35 286.154 129.695 286.794 130.385C287.434 131.075 287.754 131.86 287.754 132.74L287.739 136.67C287.739 136.8 287.674 136.905 287.544 136.985C287.424 137.055 287.289 137.09 287.139 137.09C286.809 137.09 286.644 136.95 286.644 136.67V134.135C285.834 135.185 285.059 135.945 284.319 136.415C283.589 136.885 282.834 137.12 282.054 137.12C281.334 137.12 280.699 136.83 280.149 136.25C279.599 135.66 279.324 135 279.324 134.27ZM280.404 134.3C280.404 134.87 280.604 135.305 281.004 135.605C281.404 135.895 281.829 136.04 282.279 136.04C282.799 136.04 283.394 135.785 284.064 135.275C284.734 134.755 285.289 134.18 285.729 133.55C286.179 132.91 286.404 132.41 286.404 132.05C286.404 131.75 286.314 131.485 286.134 131.255C285.964 131.015 285.749 130.84 285.489 130.73C285.239 130.62 285.009 130.54 284.799 130.49C284.589 130.43 284.414 130.4 284.274 130.4C283.294 130.4 282.404 130.795 281.604 131.585C280.804 132.365 280.404 133.27 280.404 134.3ZM293.057 136.61V126.14C293.057 126.01 293.107 125.91 293.207 125.84C293.317 125.77 293.447 125.735 293.597 125.735C293.977 125.735 294.167 125.87 294.167 126.14V131.12C294.657 130.6 295.257 130.19 295.967 129.89C296.677 129.59 297.402 129.44 298.142 129.44C299.092 129.44 299.882 129.72 300.512 130.28C301.142 130.83 301.457 131.57 301.457 132.5C301.457 132.59 301.452 133.05 301.442 133.88C301.442 134.7 301.442 135.6 301.442 136.58C301.442 136.71 301.387 136.815 301.277 136.895C301.167 136.965 301.037 137 300.887 137C300.517 137 300.332 136.86 300.332 136.58V132.635C300.332 132.145 300.192 131.735 299.912 131.405C299.642 131.065 299.342 130.835 299.012 130.715C298.682 130.595 298.347 130.535 298.007 130.535C297.267 130.535 296.512 130.765 295.742 131.225C294.982 131.685 294.457 132.275 294.167 132.995V136.61C294.167 136.88 293.977 137.015 293.597 137.015C293.447 137.015 293.317 136.98 293.207 136.91C293.107 136.84 293.057 136.74 293.057 136.61ZM302.82 133.28C302.82 132.42 303.045 131.68 303.495 131.06C303.955 130.43 304.505 129.975 305.145 129.695C305.795 129.415 306.475 129.275 307.185 129.275C308.185 129.275 309.105 129.655 309.945 130.415C310.795 131.165 311.22 132.115 311.22 133.265C311.22 134.355 310.845 135.29 310.095 136.07C309.345 136.84 308.365 137.225 307.155 137.225C305.965 137.225 304.945 136.84 304.095 136.07C303.245 135.29 302.82 134.36 302.82 133.28ZM303.93 133.295C303.93 134.005 304.255 134.655 304.905 135.245C305.555 135.825 306.31 136.115 307.17 136.115C307.98 136.115 308.67 135.82 309.24 135.23C309.82 134.64 310.11 133.985 310.11 133.265C310.11 132.565 309.835 131.91 309.285 131.3C308.735 130.69 308.025 130.385 307.155 130.385C306.135 130.385 305.34 130.695 304.77 131.315C304.21 131.935 303.93 132.595 303.93 133.295ZM312.686 136.58V126.14C312.686 125.88 312.876 125.75 313.256 125.75C313.616 125.75 313.796 125.88 313.796 126.14V130.235C314.416 129.645 315.141 129.35 315.971 129.35C317.301 129.35 318.491 129.835 319.541 130.805C320.591 131.775 321.116 132.93 321.116 134.27C321.116 135 320.841 135.66 320.291 136.25C319.741 136.83 319.106 137.12 318.386 137.12C317.606 137.12 316.846 136.885 316.106 136.415C315.376 135.945 314.606 135.185 313.796 134.135V136.58C313.796 136.71 313.741 136.815 313.631 136.895C313.521 136.965 313.391 137 313.241 137C312.871 137 312.686 136.86 312.686 136.58ZM314.036 132.05C314.036 132.41 314.256 132.91 314.696 133.55C315.146 134.18 315.706 134.755 316.376 135.275C317.046 135.785 317.641 136.04 318.161 136.04C318.611 136.04 319.036 135.895 319.436 135.605C319.836 135.305 320.036 134.87 320.036 134.3C320.036 133.27 319.636 132.365 318.836 131.585C318.036 130.795 317.146 130.4 316.166 130.4C316.026 130.4 315.851 130.43 315.641 130.49C315.431 130.54 315.196 130.62 314.936 130.73C314.686 130.84 314.471 131.015 314.291 131.255C314.121 131.485 314.036 131.75 314.036 132.05ZM322.588 136.58V126.14C322.588 125.88 322.778 125.75 323.158 125.75C323.518 125.75 323.698 125.88 323.698 126.14V130.235C324.318 129.645 325.043 129.35 325.873 129.35C327.203 129.35 328.393 129.835 329.443 130.805C330.493 131.775 331.018 132.93 331.018 134.27C331.018 135 330.743 135.66 330.193 136.25C329.643 136.83 329.008 137.12 328.288 137.12C327.508 137.12 326.748 136.885 326.008 136.415C325.278 135.945 324.508 135.185 323.698 134.135V136.58C323.698 136.71 323.643 136.815 323.533 136.895C323.423 136.965 323.293 137 323.143 137C322.773 137 322.588 136.86 322.588 136.58ZM323.938 132.05C323.938 132.41 324.158 132.91 324.598 133.55C325.048 134.18 325.608 134.755 326.278 135.275C326.948 135.785 327.543 136.04 328.063 136.04C328.513 136.04 328.938 135.895 329.338 135.605C329.738 135.305 329.938 134.87 329.938 134.3C329.938 133.27 329.538 132.365 328.738 131.585C327.938 130.795 327.048 130.4 326.068 130.4C325.928 130.4 325.753 130.43 325.543 130.49C325.333 130.54 325.098 130.62 324.838 130.73C324.588 130.84 324.373 131.015 324.193 131.255C324.023 131.485 323.938 131.75 323.938 132.05ZM332.491 136.58V129.905C332.491 129.635 332.681 129.5 333.061 129.5C333.211 129.5 333.336 129.535 333.436 129.605C333.546 129.675 333.601 129.775 333.601 129.905V136.58C333.601 136.71 333.546 136.815 333.436 136.895C333.326 136.965 333.196 137 333.046 137C332.676 137 332.491 136.86 332.491 136.58ZM332.491 127.58V127.31C332.491 127.04 332.681 126.905 333.061 126.905C333.211 126.905 333.336 126.94 333.436 127.01C333.546 127.08 333.601 127.18 333.601 127.31V127.58C333.601 127.71 333.546 127.815 333.436 127.895C333.326 127.965 333.196 128 333.046 128C332.676 128 332.491 127.86 332.491 127.58ZM335.406 136.61V129.905C335.406 129.775 335.456 129.675 335.556 129.605C335.666 129.535 335.796 129.5 335.946 129.5C336.326 129.5 336.516 129.635 336.516 129.905V131.09C337.016 130.55 337.621 130.125 338.331 129.815C339.041 129.495 339.761 129.335 340.491 129.335C341.431 129.335 342.216 129.63 342.846 130.22C343.486 130.8 343.806 131.56 343.806 132.5C343.806 132.59 343.801 133.05 343.791 133.88C343.791 134.7 343.791 135.6 343.791 136.58C343.791 136.71 343.736 136.815 343.626 136.895C343.516 136.965 343.386 137 343.236 137C342.866 137 342.681 136.86 342.681 136.58V132.635C342.681 131.925 342.426 131.38 341.916 131C341.416 130.62 340.896 130.43 340.356 130.43C339.626 130.43 338.876 130.675 338.106 131.165C337.346 131.645 336.816 132.255 336.516 132.995V136.61C336.516 136.88 336.326 137.015 335.946 137.015C335.796 137.015 335.666 136.98 335.556 136.91C335.456 136.84 335.406 136.74 335.406 136.61ZM348.667 130.43C348.667 130.06 348.807 129.875 349.087 129.875H349.597V128.945C349.597 126.815 350.392 125.75 351.982 125.75C352.672 125.75 353.252 125.96 353.722 126.38C354.192 126.8 354.432 127.405 354.442 128.195C354.442 128.355 354.387 128.48 354.277 128.57C354.177 128.65 354.052 128.69 353.902 128.69C353.742 128.69 353.607 128.645 353.497 128.555C353.387 128.465 353.332 128.35 353.332 128.21C353.332 127.71 353.197 127.36 352.927 127.16C352.657 126.96 352.342 126.86 351.982 126.86C351.132 126.86 350.707 127.42 350.707 128.54V129.875H353.107C353.377 129.875 353.512 130.065 353.512 130.445C353.512 130.595 353.477 130.725 353.407 130.835C353.337 130.935 353.237 130.985 353.107 130.985H350.707V136.58C350.707 136.85 350.517 136.985 350.137 136.985C349.987 136.985 349.857 136.95 349.747 136.88C349.647 136.81 349.597 136.71 349.597 136.58V130.985H349.087C348.957 130.985 348.852 130.93 348.772 130.82C348.702 130.71 348.667 130.58 348.667 130.43ZM354.221 133.28C354.221 132.42 354.446 131.68 354.896 131.06C355.356 130.43 355.906 129.975 356.546 129.695C357.196 129.415 357.876 129.275 358.586 129.275C359.586 129.275 360.506 129.655 361.346 130.415C362.196 131.165 362.621 132.115 362.621 133.265C362.621 134.355 362.246 135.29 361.496 136.07C360.746 136.84 359.766 137.225 358.556 137.225C357.366 137.225 356.346 136.84 355.496 136.07C354.646 135.29 354.221 134.36 354.221 133.28ZM355.331 133.295C355.331 134.005 355.656 134.655 356.306 135.245C356.956 135.825 357.711 136.115 358.571 136.115C359.381 136.115 360.071 135.82 360.641 135.23C361.221 134.64 361.511 133.985 361.511 133.265C361.511 132.565 361.236 131.91 360.686 131.3C360.136 130.69 359.426 130.385 358.556 130.385C357.536 130.385 356.741 130.695 356.171 131.315C355.611 131.935 355.331 132.595 355.331 133.295ZM364.073 136.58V129.935C364.073 129.665 364.263 129.53 364.643 129.53C364.793 129.53 364.918 129.565 365.018 129.635C365.128 129.705 365.183 129.805 365.183 129.935V131.81C365.563 130.99 365.983 130.37 366.443 129.95C366.913 129.53 367.533 129.32 368.303 129.32C368.843 129.32 369.388 129.39 369.938 129.53C370.228 129.67 370.373 129.86 370.373 130.1C370.373 130.27 370.338 130.39 370.268 130.46C370.198 130.53 370.083 130.575 369.923 130.595C369.413 130.475 368.998 130.415 368.678 130.415C367.938 130.415 367.263 130.78 366.653 131.51C366.043 132.24 365.553 133.19 365.183 134.36V136.58C365.183 136.71 365.128 136.815 365.018 136.895C364.908 136.965 364.778 137 364.628 137C364.258 137 364.073 136.86 364.073 136.58ZM375.03 136.58V129.935C375.03 129.665 375.22 129.53 375.6 129.53C375.75 129.53 375.875 129.565 375.975 129.635C376.085 129.705 376.14 129.805 376.14 129.935V130.73C376.46 130.35 376.85 130.025 377.31 129.755C377.77 129.485 378.225 129.35 378.675 129.35C379.905 129.35 380.78 129.795 381.3 130.685C381.61 130.255 382.005 129.925 382.485 129.695C382.975 129.465 383.47 129.35 383.97 129.35C384.9 129.35 385.635 129.615 386.175 130.145C386.715 130.675 386.985 131.41 386.985 132.35C386.985 132.44 386.98 132.935 386.97 133.835C386.97 134.725 386.97 135.66 386.97 136.64C386.97 136.77 386.915 136.875 386.805 136.955C386.695 137.025 386.57 137.06 386.43 137.06C386.06 137.06 385.875 136.92 385.875 136.64V132.485C385.875 131.135 385.26 130.46 384.03 130.46C383.85 130.46 383.665 130.48 383.475 130.52C383.295 130.55 383.095 130.615 382.875 130.715C382.665 130.815 382.475 130.94 382.305 131.09C382.135 131.23 381.995 131.425 381.885 131.675C381.775 131.925 381.72 132.205 381.72 132.515C381.72 132.905 381.715 133.4 381.705 134C381.705 134.6 381.705 135.48 381.705 136.64C381.705 136.77 381.645 136.875 381.525 136.955C381.415 137.025 381.285 137.06 381.135 137.06C380.785 137.06 380.61 136.92 380.61 136.64V132.485C380.61 131.755 380.435 131.235 380.085 130.925C379.735 130.615 379.285 130.46 378.735 130.46C378.205 130.46 377.69 130.66 377.19 131.06C376.7 131.46 376.35 131.925 376.14 132.455V136.58C376.14 136.71 376.085 136.815 375.975 136.895C375.865 136.965 375.735 137 375.585 137C375.215 137 375.03 136.86 375.03 136.58ZM388.367 133.04C388.367 132.4 388.507 131.83 388.787 131.33C389.067 130.83 389.437 130.435 389.897 130.145C390.357 129.855 390.852 129.64 391.382 129.5C391.912 129.35 392.452 129.275 393.002 129.275C393.982 129.275 394.742 129.49 395.282 129.92C395.822 130.34 396.092 130.86 396.092 131.48C396.092 132.15 395.777 132.72 395.147 133.19C394.517 133.66 393.622 133.895 392.462 133.895C391.422 133.895 390.432 133.745 389.492 133.445C389.602 134.185 389.947 134.805 390.527 135.305C391.107 135.805 391.822 136.055 392.672 136.055C393.122 136.055 393.587 135.985 394.067 135.845C394.557 135.705 394.942 135.505 395.222 135.245C395.262 135.165 395.342 135.125 395.462 135.125C395.602 135.125 395.752 135.19 395.912 135.32C396.072 135.44 396.152 135.565 396.152 135.695C395.902 136.205 395.412 136.58 394.682 136.82C393.962 137.05 393.262 137.165 392.582 137.165C391.352 137.165 390.342 136.76 389.552 135.95C388.762 135.14 388.367 134.17 388.367 133.04ZM389.552 132.29C390.302 132.62 391.232 132.785 392.342 132.785C393.212 132.785 393.872 132.65 394.322 132.38C394.772 132.1 394.997 131.79 394.997 131.45C394.997 131.15 394.807 130.9 394.427 130.7C394.057 130.49 393.502 130.385 392.762 130.385C391.962 130.385 391.292 130.565 390.752 130.925C390.222 131.275 389.822 131.73 389.552 132.29ZM397.632 136.25V135.83C397.632 135.61 397.722 135.435 397.902 135.305C398.092 135.175 398.342 135.11 398.652 135.11C398.922 135.11 399.152 135.175 399.342 135.305C399.532 135.425 399.627 135.6 399.627 135.83V136.25C399.627 136.48 399.527 136.665 399.327 136.805C399.127 136.935 398.897 137 398.637 137C398.327 137 398.082 136.935 397.902 136.805C397.722 136.665 397.632 136.48 397.632 136.25Z" fill="black"/>
<path d="M420.702 109.627C402.468 79.0653 335.986 75.2531 148.102 79.371C74.2904 79.371 45.8156 112.989 59.1927 132.854C79.7425 163.371 86.0333 168 229.882 168C387.151 168 441.671 144.773 420.702 109.627Z" stroke="black"/>
<path d="M91.4117 77.8499C84.4894 61.9067 60.5132 26.7478 19.9865 13.6576" stroke="black"/>
<path d="M1 2.2129L13.8578 26.3153C12.021 8.92493 31.0016 4.95874 28.8586 2.2129C27.1443 0.0162238 9.57189 1.29762 1 2.2129Z" stroke="black"/>
</svg>
