<svg width="30" height="30" viewBox="0 0 30 30" fill="none" xmlns="http://www.w3.org/2000/svg">
<circle cx="15" cy="15" r="15" fill="#9F9F9F"/>
<g clip-path="url(#clip0_21_121)">
<path d="M15.608 3.93666C15.4416 3.82728 15.1694 3.82512 15.0008 3.93233C14.0227 4.55404 13.3903 5.17646 12.7607 5.79617C10.1711 8.34499 9.9812 11.2582 10.6192 14.2254L8.00503 16.7985C7.59533 17.2025 7.40629 17.9743 7.58313 18.5217L8.78275 22.221C8.82762 22.3432 8.89596 22.4555 8.9839 22.5516C9.14113 22.7112 9.3553 22.8019 9.57935 22.8036C9.80339 22.8054 10.019 22.7181 10.1786 22.5609L12.7827 19.9978L12.7737 21.1163C12.7691 21.682 13.2441 22.2464 13.8909 22.2514L16.4247 22.2716C16.9808 22.2768 17.5562 21.8077 17.5605 21.1537L17.5695 20.0351L20.1334 22.64C20.2907 22.7997 20.5048 22.8903 20.7289 22.8921C20.9529 22.8938 21.1685 22.8065 21.3282 22.6494C21.4176 22.5546 21.4877 22.4434 21.5347 22.3219L22.7918 18.6453C22.9786 18.1011 22.8024 17.3261 22.3985 16.9157L19.8199 14.2959C20.4976 11.3418 20.3551 8.41539 17.8197 5.83949C17.1998 5.20496 16.5775 4.57275 15.608 3.93666ZM16.2472 10.6614C16.0487 10.8567 15.7968 10.9887 15.5233 11.0408C15.2498 11.0929 14.9669 11.0627 14.7106 10.9541C14.4542 10.8455 14.2358 10.6633 14.083 10.4305C13.9301 10.1977 13.8498 9.92489 13.852 9.64646C13.8543 9.36803 13.939 9.09652 14.0956 8.86625C14.2521 8.63598 14.4734 8.4573 14.7315 8.35281C14.9896 8.24831 15.2729 8.22269 15.5455 8.27918C15.8182 8.33568 16.0679 8.47175 16.2633 8.67019C16.525 8.93645 16.6704 9.29575 16.6674 9.66912C16.6644 10.0425 16.5132 10.3994 16.2472 10.6614Z" fill="white"/>
</g>
<defs>
<clipPath id="clip0_21_121">
<rect width="18.021" height="18.021" fill="white" transform="translate(2.4657 15.9292) rotate(-44.5457)"/>
</clipPath>
</defs>
</svg>
