<svg width="385" height="267" viewBox="0 0 385 267" fill="none" xmlns="http://www.w3.org/2000/svg">
<path d="M350.498 229.297C407.233 195.56 368.5 111.749 298.243 93.98C239.195 79.0457 205.331 18.7859 139.472 25.2685C73.6134 31.7512 -5.07234 156.378 108.782 234.127C168.441 270.429 279.578 271.468 350.498 229.297Z" stroke="black"/>
<path d="M337.607 169.815C384.723 128.773 328.752 67.3474 257.139 68.32C196.953 69.1374 150.918 26.3291 88.9443 46.6125C26.971 66.8958 -21.0306 188.978 105.927 228.384C171.463 245.317 278.713 221.117 337.607 169.815Z" fill="#2969E2" fill-opacity="0.4"/>
<path d="M335.101 221.821C396.316 196.318 368.908 122.933 301.12 103.911C244.148 87.9234 218.434 34.824 151.775 36.657C85.1151 38.49 -10.2628 140.007 92.9992 212.434C147.705 246.614 258.581 253.7 335.101 221.821Z" fill="#005DE9" fill-opacity="0.8"/>
</svg>
